<?xml version="1.0" encoding="UTF-8" standalone="no"?>
<!DOCTYPE svg PUBLIC "-//W3C//DTD SVG 1.1//EN" "http://www.w3.org/Graphics/SVG/1.1/DTD/svg11.dtd">
<svg xmlns="http://www.w3.org/2000/svg" version="1.1" viewBox="0.00 0.00 64.00 64.00">
<path fill="#000000" d="
  M 13.31 0.00
  L 18.81 0.00
  Q 29.37 2.67 29.29 13.26
  Q 29.19 24.95 29.27 36.76
  Q 29.28 37.29 29.80 37.28
  Q 38.55 37.27 47.34 37.24
  C 52.97 37.22 53.49 31.62 49.96 28.58
  C 47.18 26.17 40.46 26.99 37.72 27.01
  A 0.52 0.52 0.0 0 1 37.20 26.48
  L 37.27 20.02
  Q 37.28 19.51 37.78 19.46
  Q 45.85 18.64 49.98 20.01
  C 59.11 23.05 62.99 33.48 56.69 41.22
  Q 56.38 41.60 56.68 41.98
  C 63.48 50.68 59.15 61.95 48.44 64.00
  L 21.96 64.00
  L 22.01 56.49
  Q 22.01 55.97 22.53 55.97
  Q 34.30 56.01 45.99 56.02
  C 52.14 56.02 54.18 49.22 48.84 45.84
  Q 48.49 45.62 48.08 45.61
  L 21.71 45.45
  Q 21.26 45.45 21.26 44.99
  Q 21.24 28.81 21.24 12.78
  C 21.24 7.89 14.40 6.39 12.01 9.53
  Q 10.98 10.88 10.99 14.20
  Q 11.04 38.70 10.98 63.18
  A 0.43 0.43 0.0 0 1 10.54 63.61
  L 3.43 63.54
  Q 3.00 63.54 3.00 63.11
  Q 2.99 39.52 2.99 15.99
  C 2.99 7.49 4.64 1.91 13.31 0.00
  Z"
/>
</svg>
