<?xml version="1.0" encoding="UTF-8" standalone="no"?>
<!DOCTYPE svg PUBLIC "-//W3C//DTD SVG 1.1//EN" "http://www.w3.org/Graphics/SVG/1.1/DTD/svg11.dtd">
<svg xmlns="http://www.w3.org/2000/svg" version="1.1" viewBox="0.00 0.00 48.00 48.00">
<path fill="#000001" d="
  M 17.98 28.43
  L 8.77 31.28
  A 0.35 0.35 0.0 0 1 8.33 30.83
  L 17.38 4.49
  A 0.35 0.35 0.0 0 1 17.71 4.25
  L 30.46 4.25
  A 0.35 0.35 0.0 0 1 30.79 4.49
  L 39.80 30.81
  A 0.35 0.35 0.0 0 1 39.36 31.26
  L 30.22 28.44
  A 0.35 0.35 0.0 0 1 29.99 28.22
  L 24.40 11.33
  A 0.35 0.35 0.0 0 0 23.74 11.33
  L 18.21 28.21
  A 0.35 0.35 0.0 0 1 17.98 28.43
  Z"
/>
<path fill="#ff4100" d="
  M 32.25 34.66
  Q 30.97 39.11 26.47 40.72
  A 1.08 1.07 -6.0 0 0 25.77 41.58
  L 25.37 44.52
  A 0.32 0.32 0.0 0 1 24.85 44.72
  Q 22.64 42.85 22.53 40.06
  C 22.40 36.79 20.32 36.97 18.44 38.94
  Q 18.01 39.38 17.67 38.88
  Q 15.84 36.18 16.38 32.92
  A 0.39 0.39 0.0 0 1 16.95 32.64
  Q 23.69 36.34 30.89 33.43
  A 1.02 1.02 0.0 0 1 32.25 34.66
  Z"
/>
</svg>
