<?xml version="1.0" encoding="UTF-8" standalone="no"?>
<!DOCTYPE svg PUBLIC "-//W3C//DTD SVG 1.1//EN" "http://www.w3.org/Graphics/SVG/1.1/DTD/svg11.dtd">
<svg xmlns="http://www.w3.org/2000/svg" version="1.1" viewBox="0.00 0.00 48.00 48.00">
<g stroke-width="2.00" fill="none" stroke-linecap="butt">
<path stroke="#6d419b" vector-effect="non-scaling-stroke" d="
  M 16.98 17.58
  C 10.82 20.12 11.06 28.07 18.22 29.00"
/>
<path stroke="#16815a" vector-effect="non-scaling-stroke" d="
  M 18.22 29.00
  C 2.05 33.31 26.08 52.88 24.13 28.01"
/>
<path stroke="#6d419b" vector-effect="non-scaling-stroke" d="
  M 24.13 28.01
  L 23.89 24.82"
/>
<path stroke="#16789b" vector-effect="non-scaling-stroke" d="
  M 23.89 24.82
  Q 24.78 26.25 25.88 27.38
  C 29.81 31.44 36.24 27.47 35.06 22.16
  Q 33.97 17.26 28.02 17.71
  Q 27.52 17.75 27.20 18.13
  L 23.97 22.03"
/>
<path stroke="#6d419b" vector-effect="non-scaling-stroke" d="
  M 23.97 22.03
  L 23.96 17.81"
/>
<path stroke="#964b49" vector-effect="non-scaling-stroke" d="
  M 23.96 17.81
  L 30.92 17.46
  Q 31.40 17.44 31.80 17.16
  Q 32.09 16.97 32.49 16.88
  Q 32.97 16.77 33.31 16.41
  Q 37.23 12.29 34.19 8.53
  C 31.89 5.68 27.50 5.97 24.19 6.32"
/>
<path stroke="#96341c" vector-effect="non-scaling-stroke" d="
  M 24.19 6.32
  C 20.30 6.15 15.27 5.48 13.22 9.42
  C 11.43 12.85 13.43 16.45 16.98 17.58"
/>
<path stroke="#ff512e" vector-effect="non-scaling-stroke" d="
  M 24.19 6.32
  L 24.17 17.12
  Q 24.17 17.46 23.83 17.51
  Q 23.67 17.53 23.50 17.54"
/>
<path stroke="#d74780" vector-effect="non-scaling-stroke" d="
  M 23.50 17.54
  L 16.98 17.58"
/>
<path stroke="#578bff" vector-effect="non-scaling-stroke" d="
  M 23.97 22.03
  Q 23.48 23.49 23.89 24.82"
/>
<path stroke="#5794be" vector-effect="non-scaling-stroke" d="
  M 24.13 28.01
  Q 22.99 29.52 18.22 29.00"
/>
<path stroke="#d75ead" vector-effect="non-scaling-stroke" d="
  M 23.96 17.81
  Q 23.51 17.75 23.50 17.54"
/>
</g>
<path fill="#2c2e37" d="
  M 47.23 37.01
  A 9.85 9.85 0.0 0 1 37.38 46.86
  L 10.62 46.86
  A 9.85 9.85 0.0 0 1 0.77 37.01
  L 0.77 10.11
  A 9.85 9.85 0.0 0 1 10.62 0.26
  L 37.38 0.26
  A 9.85 9.85 0.0 0 1 47.23 10.11
  L 47.23 37.01
  Z
  M 16.98 17.58
  C 10.82 20.12 11.06 28.07 18.22 29.00
  C 2.05 33.31 26.08 52.88 24.13 28.01
  L 23.89 24.82
  Q 24.78 26.25 25.88 27.38
  C 29.81 31.44 36.24 27.47 35.06 22.16
  Q 33.97 17.26 28.02 17.71
  Q 27.52 17.75 27.20 18.13
  L 23.97 22.03
  L 23.96 17.81
  L 30.92 17.46
  Q 31.40 17.44 31.80 17.16
  Q 32.09 16.97 32.49 16.88
  Q 32.97 16.77 33.31 16.41
  Q 37.23 12.29 34.19 8.53
  C 31.89 5.68 27.50 5.97 24.19 6.32
  C 20.30 6.15 15.27 5.48 13.22 9.42
  C 11.43 12.85 13.43 16.45 16.98 17.58
  Z"
/>
<path fill="#ff3a00" d="
  M 24.19 6.32
  L 24.17 17.12
  Q 24.17 17.46 23.83 17.51
  Q 23.67 17.53 23.50 17.54
  L 16.98 17.58
  C 13.43 16.45 11.43 12.85 13.22 9.42
  C 15.27 5.48 20.30 6.15 24.19 6.32
  Z"
/>
<path fill="#ff675b" d="
  M 24.19 6.32
  C 27.50 5.97 31.89 5.68 34.19 8.53
  Q 37.23 12.29 33.31 16.41
  Q 32.97 16.77 32.49 16.88
  Q 32.09 16.97 31.80 17.16
  Q 31.40 17.44 30.92 17.46
  L 23.96 17.81
  Q 23.51 17.75 23.50 17.54
  Q 23.67 17.53 23.83 17.51
  Q 24.17 17.46 24.17 17.12
  L 24.19 6.32
  Z"
/>
<path fill="#ae54ff" d="
  M 16.98 17.58
  L 23.50 17.54
  Q 23.51 17.75 23.96 17.81
  L 23.97 22.03
  Q 23.48 23.49 23.89 24.82
  L 24.13 28.01
  Q 22.99 29.52 18.22 29.00
  C 11.06 28.07 10.82 20.12 16.98 17.58
  Z"
/>
<path fill="#00c1ff" d="
  M 23.89 24.82
  Q 23.48 23.49 23.97 22.03
  L 27.20 18.13
  Q 27.52 17.75 28.02 17.71
  Q 33.97 17.26 35.06 22.16
  C 36.24 27.47 29.81 31.44 25.88 27.38
  Q 24.78 26.25 23.89 24.82
  Z"
/>
<path fill="#00d47c" d="
  M 24.13 28.01
  C 26.08 52.88 2.05 33.31 18.22 29.00
  Q 22.99 29.52 24.13 28.01
  Z"
/>
</svg>
