<?xml version="1.0" encoding="UTF-8" standalone="no"?>
<!DOCTYPE svg PUBLIC "-//W3C//DTD SVG 1.1//EN" "http://www.w3.org/Graphics/SVG/1.1/DTD/svg11.dtd">
<svg xmlns="http://www.w3.org/2000/svg" version="1.1" viewBox="0.00 0.00 48.00 48.00">
<g stroke-width="2.00" fill="none" stroke-linecap="butt">
<path stroke="#8d8126" vector-effect="non-scaling-stroke" d="
  M 25.75 38.89
  L 25.86 22.97
  Q 25.86 22.26 25.16 22.30
  L 22.37 22.47
  Q 21.75 22.50 21.75 23.13
  L 21.75 36.92
  A 2.00 1.99 1.8 0 1 19.63 38.91
  Q 17.99 38.81 17.38 37.43
  A 0.70 0.70 0.0 0 0 16.36 37.12
  L 13.87 38.71
  Q 13.41 39.00 13.77 39.41
  Q 19.14 45.39 25.17 40.15
  Q 25.75 39.65 25.75 38.89"
/>
<path stroke="#8d8126" vector-effect="non-scaling-stroke" d="
  M 37.83 38.18
  Q 34.22 40.08 31.75 36.80
  A 0.66 0.66 0.0 0 0 30.84 36.66
  L 28.58 38.27
  Q 28.07 38.62 28.48 39.09
  Q 32.13 43.25 37.20 42.41
  C 41.28 41.73 43.87 38.07 41.82 34.17
  C 40.44 31.53 37.02 30.35 34.33 29.03
  Q 33.92 28.83 33.74 28.41
  C 32.52 25.57 36.09 24.33 37.68 26.93
  A 0.68 0.68 0.0 0 0 38.69 27.10
  L 40.76 25.45
  Q 41.28 25.03 40.84 24.53
  C 36.99 20.11 28.66 21.91 29.50 28.85
  C 29.88 32.00 35.30 34.27 37.77 35.44
  A 1.53 1.53 0.0 0 1 37.83 38.18"
/>
</g>
<path fill="#f4da1e" d="
  M 46.00 45.20
  A 0.80 0.80 0.0 0 1 45.20 46.00
  L 2.80 46.00
  A 0.80 0.80 0.0 0 1 2.00 45.20
  L 2.00 2.80
  A 0.80 0.80 0.0 0 1 2.80 2.00
  L 45.20 2.00
  A 0.80 0.80 0.0 0 1 46.00 2.80
  L 46.00 45.20
  Z
  M 25.75 38.89
  L 25.86 22.97
  Q 25.86 22.26 25.16 22.30
  L 22.37 22.47
  Q 21.75 22.50 21.75 23.13
  L 21.75 36.92
  A 2.00 1.99 1.8 0 1 19.63 38.91
  Q 17.99 38.81 17.38 37.43
  A 0.70 0.70 0.0 0 0 16.36 37.12
  L 13.87 38.71
  Q 13.41 39.00 13.77 39.41
  Q 19.14 45.39 25.17 40.15
  Q 25.75 39.65 25.75 38.89
  Z
  M 37.83 38.18
  Q 34.22 40.08 31.75 36.80
  A 0.66 0.66 0.0 0 0 30.84 36.66
  L 28.58 38.27
  Q 28.07 38.62 28.48 39.09
  Q 32.13 43.25 37.20 42.41
  C 41.28 41.73 43.87 38.07 41.82 34.17
  C 40.44 31.53 37.02 30.35 34.33 29.03
  Q 33.92 28.83 33.74 28.41
  C 32.52 25.57 36.09 24.33 37.68 26.93
  A 0.68 0.68 0.0 0 0 38.69 27.10
  L 40.76 25.45
  Q 41.28 25.03 40.84 24.53
  C 36.99 20.11 28.66 21.91 29.50 28.85
  C 29.88 32.00 35.30 34.27 37.77 35.44
  A 1.53 1.53 0.0 0 1 37.83 38.18
  Z"
/>
<path fill="#25282e" d="
  M 25.17 40.15
  Q 19.14 45.39 13.77 39.41
  Q 13.41 39.00 13.87 38.71
  L 16.36 37.12
  A 0.70 0.70 0.0 0 1 17.38 37.43
  Q 17.99 38.81 19.63 38.91
  A 2.00 1.99 1.8 0 0 21.75 36.92
  L 21.75 23.13
  Q 21.75 22.50 22.37 22.47
  L 25.16 22.30
  Q 25.86 22.26 25.86 22.97
  L 25.75 38.89
  Q 25.75 39.65 25.17 40.15
  Z"
/>
<path fill="#25282e" d="
  M 37.83 38.18
  A 1.53 1.53 0.0 0 0 37.77 35.44
  C 35.30 34.27 29.88 32.00 29.50 28.85
  C 28.66 21.91 36.99 20.11 40.84 24.53
  Q 41.28 25.03 40.76 25.45
  L 38.69 27.10
  A 0.68 0.68 0.0 0 1 37.68 26.93
  C 36.09 24.33 32.52 25.57 33.74 28.41
  Q 33.92 28.83 34.33 29.03
  C 37.02 30.35 40.44 31.53 41.82 34.17
  C 43.87 38.07 41.28 41.73 37.20 42.41
  Q 32.13 43.25 28.48 39.09
  Q 28.07 38.62 28.58 38.27
  L 30.84 36.66
  A 0.66 0.66 0.0 0 1 31.75 36.80
  Q 34.22 40.08 37.83 38.18
  Z"
/>
</svg>
