<?xml version="1.0" encoding="UTF-8" standalone="no"?>
<!DOCTYPE svg PUBLIC "-//W3C//DTD SVG 1.1//EN" "http://www.w3.org/Graphics/SVG/1.1/DTD/svg11.dtd">
<svg xmlns="http://www.w3.org/2000/svg" version="1.1" viewBox="0.00 0.00 48.00 48.00">
<g stroke-width="2.00" fill="none" stroke-linecap="butt">
<path stroke="#00679c" vector-effect="non-scaling-stroke" d="
  M 16.58 26.73
  C 23.47 27.27 29.79 20.72 23.66 14.98
  C 21.17 12.66 15.60 13.12 12.44 13.30
  A 0.73 0.73 0.0 0 0 11.75 14.03
  L 11.75 32.62
  Q 11.75 33.25 12.38 33.25
  L 15.17 33.25
  Q 15.83 33.25 15.86 32.59
  L 16.06 27.19
  Q 16.08 26.69 16.58 26.73"
/>
<path stroke="#00679c" vector-effect="non-scaling-stroke" d="
  M 32.23 21.37
  Q 34.59 21.00 36.73 21.96
  Q 37.38 22.26 37.44 21.55
  L 37.65 19.13
  A 0.57 0.56 -77.1 0 0 37.29 18.55
  C 28.94 15.37 22.72 23.74 33.73 28.07
  A 1.00 1.00 0.0 0 1 33.47 29.99
  Q 30.82 30.26 28.45 29.07
  Q 27.75 28.72 27.75 29.50
  L 27.75 32.13
  Q 27.75 32.55 28.14 32.73
  C 31.91 34.38 41.13 32.88 38.08 27.00
  C 37.12 25.14 34.05 23.97 32.01 23.09
  A 0.90 0.90 0.0 0 1 32.23 21.37"
/>
<path stroke="#005a84" vector-effect="non-scaling-stroke" d="
  M 16.01 17.39
  L 15.99 22.81
  A 0.38 0.38 0.0 0 0 16.37 23.19
  L 18.23 23.20
  A 3.28 2.40 0.2 0 0 21.52 20.81
  L 21.52 19.43
  A 3.28 2.40 0.2 0 0 18.25 17.02
  L 16.39 17.01
  A 0.38 0.38 0.0 0 0 16.01 17.39"
/>
</g>
<path fill="#001f38" d="
  M 45.97 38.06
  A 7.92 7.92 0.0 0 1 38.05 45.98
  L 9.93 45.98
  A 7.92 7.92 0.0 0 1 2.01 38.06
  L 2.01 9.94
  A 7.92 7.92 0.0 0 1 9.93 2.02
  L 38.05 2.02
  A 7.92 7.92 0.0 0 1 45.97 9.94
  L 45.97 38.06
  Z
  M 16.58 26.73
  C 23.47 27.27 29.79 20.72 23.66 14.98
  C 21.17 12.66 15.60 13.12 12.44 13.30
  A 0.73 0.73 0.0 0 0 11.75 14.03
  L 11.75 32.62
  Q 11.75 33.25 12.38 33.25
  L 15.17 33.25
  Q 15.83 33.25 15.86 32.59
  L 16.06 27.19
  Q 16.08 26.69 16.58 26.73
  Z
  M 32.23 21.37
  Q 34.59 21.00 36.73 21.96
  Q 37.38 22.26 37.44 21.55
  L 37.65 19.13
  A 0.57 0.56 -77.1 0 0 37.29 18.55
  C 28.94 15.37 22.72 23.74 33.73 28.07
  A 1.00 1.00 0.0 0 1 33.47 29.99
  Q 30.82 30.26 28.45 29.07
  Q 27.75 28.72 27.75 29.50
  L 27.75 32.13
  Q 27.75 32.55 28.14 32.73
  C 31.91 34.38 41.13 32.88 38.08 27.00
  C 37.12 25.14 34.05 23.97 32.01 23.09
  A 0.90 0.90 0.0 0 1 32.23 21.37
  Z"
/>
<path fill="#00aeff" d="
  M 16.06 27.19
  L 15.86 32.59
  Q 15.83 33.25 15.17 33.25
  L 12.38 33.25
  Q 11.75 33.25 11.75 32.62
  L 11.75 14.03
  A 0.73 0.73 0.0 0 1 12.44 13.30
  C 15.60 13.12 21.17 12.66 23.66 14.98
  C 29.79 20.72 23.47 27.27 16.58 26.73
  Q 16.08 26.69 16.06 27.19
  Z
  M 16.01 17.39
  L 15.99 22.81
  A 0.38 0.38 0.0 0 0 16.37 23.19
  L 18.23 23.20
  A 3.28 2.40 0.2 0 0 21.52 20.81
  L 21.52 19.43
  A 3.28 2.40 0.2 0 0 18.25 17.02
  L 16.39 17.01
  A 0.38 0.38 0.0 0 0 16.01 17.39
  Z"
/>
<path fill="#000509" d="
  M 16.01 17.39
  A 0.38 0.38 0.0 0 1 16.39 17.01
  L 18.25 17.02
  A 3.28 2.40 0.2 0 1 21.52 19.43
  L 21.52 20.81
  A 3.28 2.40 0.2 0 1 18.23 23.20
  L 16.37 23.19
  A 0.38 0.38 0.0 0 1 15.99 22.81
  L 16.01 17.39
  Z"
/>
<path fill="#00aeff" d="
  M 32.23 21.37
  A 0.90 0.90 0.0 0 0 32.01 23.09
  C 34.05 23.97 37.12 25.14 38.08 27.00
  C 41.13 32.88 31.91 34.38 28.14 32.73
  Q 27.75 32.55 27.75 32.13
  L 27.75 29.50
  Q 27.75 28.72 28.45 29.07
  Q 30.82 30.26 33.47 29.99
  A 1.00 1.00 0.0 0 0 33.73 28.07
  C 22.72 23.74 28.94 15.37 37.29 18.55
  A 0.57 0.56 -77.1 0 1 37.65 19.13
  L 37.44 21.55
  Q 37.38 22.26 36.73 21.96
  Q 34.59 21.00 32.23 21.37
  Z"
/>
</svg>
