<?xml version="1.0" encoding="UTF-8" standalone="no"?>
<!DOCTYPE svg PUBLIC "-//W3C//DTD SVG 1.1//EN" "http://www.w3.org/Graphics/SVG/1.1/DTD/svg11.dtd">
<svg xmlns="http://www.w3.org/2000/svg" version="1.1" viewBox="0.00 0.00 48.00 48.00">
<path fill="#0fdbfb" fill-opacity="0.996" d="
  M 35.26 31.30
  C 35.76 34.49 36.73 40.02 33.13 41.58
  C 30.04 42.92 26.61 40.30 24.63 38.00
  A 0.59 0.58 -40.6 0 0 23.80 37.94
  C 15.06 45.39 11.29 41.87 12.76 31.29
  Q 12.84 30.75 12.33 30.58
  C 1.82 27.00 3.46 20.73 12.61 17.34
  A 0.61 0.60 -20.1 0 0 12.97 16.57
  C 9.81 7.44 16.64 1.69 23.31 10.09
  Q 23.69 10.56 24.16 10.18
  C 26.49 8.30 29.38 5.28 32.58 6.23
  C 36.53 7.41 36.13 13.58 35.09 16.56
  A 0.55 0.54 21.2 0 0 35.40 17.25
  C 44.78 21.00 46.01 27.02 35.72 30.53
  A 0.69 0.69 0.0 0 0 35.26 31.30
  Z
  M 22.25 11.07
  C 20.63 9.59 18.62 8.00 16.33 7.65
  A 1.14 1.14 0.0 0 0 15.34 7.98
  C 13.47 9.94 13.92 13.69 14.49 16.00
  Q 14.62 16.50 15.13 16.52
  Q 20.51 16.80 22.43 11.83
  Q 22.60 11.39 22.25 11.07
  Z
  M 32.71 16.62
  A 0.78 0.77 -80.5 0 0 33.44 16.09
  C 35.88 8.98 31.92 4.55 25.82 11.11
  Q 25.48 11.48 25.67 11.95
  Q 27.59 16.68 32.71 16.62
  Z
  M 22.57 15.76
  L 25.47 15.74
  A 0.19 0.19 0.0 0 0 25.66 15.55
  L 25.66 15.43
  A 1.87 1.56 89.8 0 0 24.10 13.57
  L 23.94 13.57
  A 1.87 1.56 89.8 0 0 22.38 15.45
  L 22.38 15.57
  A 0.19 0.19 0.0 0 0 22.57 15.76
  Z
  M 27.98 18.41
  A 1.74 1.74 0.0 0 0 26.45 17.50
  L 21.57 17.50
  A 1.74 1.74 0.0 0 0 20.04 18.42
  L 17.47 23.22
  A 1.74 1.74 0.0 0 0 17.47 24.88
  L 20.05 29.60
  A 1.74 1.74 0.0 0 0 21.58 30.50
  L 26.42 30.50
  A 1.74 1.74 0.0 0 0 27.95 29.60
  L 30.57 24.85
  A 1.74 1.74 0.0 0 0 30.58 23.18
  L 27.98 18.41
  Z
  M 16.67 21.11
  L 18.02 18.63
  A 0.22 0.22 0.0 0 0 17.93 18.33
  L 17.82 18.28
  A 1.90 1.57 28.4 0 0 15.40 18.75
  L 15.35 18.86
  A 1.90 1.57 28.4 0 0 16.27 21.14
  L 16.38 21.20
  A 0.22 0.22 0.0 0 0 16.67 21.11
  Z
  M 30.04 18.52
  L 31.39 21.11
  A 0.20 0.20 0.0 0 0 31.66 21.19
  L 31.76 21.14
  A 1.83 1.64 -27.6 0 0 32.62 18.84
  L 32.60 18.81
  A 1.83 1.64 -27.6 0 0 30.22 18.20
  L 30.12 18.25
  A 0.20 0.20 0.0 0 0 30.04 18.52
  Z
  M 12.93 19.12
  C 5.01 21.65 4.92 25.96 12.70 28.94
  A 0.61 0.61 0.0 0 0 13.50 28.56
  Q 14.16 26.56 15.03 24.64
  Q 15.25 24.14 15.07 23.63
  L 13.58 19.44
  Q 13.41 18.97 12.93 19.12
  Z
  M 35.36 19.22
  A 0.73 0.73 0.0 0 0 34.46 19.65
  L 32.91 23.63
  Q 32.75 24.03 32.91 24.43
  L 34.55 28.57
  Q 34.73 29.04 35.22 28.91
  C 42.88 26.76 43.09 21.69 35.36 19.22
  Z
  M 32.18 26.97
  A 0.45 0.45 0.0 0 0 31.35 26.90
  L 29.97 29.44
  A 0.45 0.45 0.0 0 0 30.48 30.09
  L 32.53 29.59
  A 0.45 0.45 0.0 0 0 32.86 29.02
  L 32.18 26.97
  Z
  M 18.05 29.51
  L 16.76 26.91
  A 0.23 0.23 0.0 0 0 16.45 26.81
  L 16.31 26.87
  A 1.88 1.68 -26.4 0 0 15.38 29.21
  L 15.38 29.21
  A 1.88 1.68 -26.4 0 0 17.81 29.88
  L 17.94 29.81
  A 0.23 0.23 0.0 0 0 18.05 29.51
  Z
  M 22.37 36.05
  C 20.93 32.15 18.72 32.11 15.22 31.36
  Q 14.67 31.25 14.52 31.79
  Q 13.58 35.31 14.43 38.84
  A 2.03 2.02 73.0 0 0 17.09 40.26
  Q 20.01 39.19 22.18 36.94
  Q 22.55 36.55 22.37 36.05
  Z
  M 25.55 36.53
  C 31.21 43.08 35.47 40.26 33.60 32.18
  A 0.96 0.95 -11.2 0 0 32.51 31.45
  L 29.00 32.05
  Q 28.54 32.12 28.24 32.49
  L 25.54 35.79
  Q 25.23 36.17 25.55 36.53
  Z
  M 25.34 32.26
  L 22.68 32.26
  A 0.25 0.25 0.0 0 0 22.43 32.51
  L 22.43 32.65
  A 1.91 1.56 90.0 0 0 23.99 34.56
  L 24.03 34.56
  A 1.91 1.56 -90.0 0 0 25.59 32.65
  L 25.59 32.51
  A 0.25 0.25 0.0 0 0 25.34 32.26
  Z"
/>
<ellipse fill="#0fdbfb" fill-opacity="0.996" cx="0.00" cy="0.00" transform="translate(24.00,24.01) rotate(86.7)" rx="3.59" ry="3.34"/>
</svg>
