<?xml version="1.0" encoding="UTF-8" standalone="no"?>
<!DOCTYPE svg PUBLIC "-//W3C//DTD SVG 1.1//EN" "http://www.w3.org/Graphics/SVG/1.1/DTD/svg11.dtd">
<svg xmlns="http://www.w3.org/2000/svg" version="1.1" viewBox="0.00 0.00 48.00 48.00">
<path fill="#00bcba" d="
  M 28.69 22.81
  C 24.81 20.33 20.98 11.88 15.73 19.15
  A 0.52 0.52 0.0 0 1 14.82 18.65
  C 16.71 13.91 19.94 10.59 25.28 11.00
  C 29.86 11.36 31.49 13.83 34.43 16.84
  C 37.40 19.88 40.49 20.12 43.09 16.41
  A 0.34 0.33 67.2 0 1 43.69 16.66
  C 42.60 23.83 34.55 26.56 28.69 22.81
  Z"
/>
<path fill="#00bcba" d="
  M 24.17 37.95
  C 16.86 37.65 14.99 29.25 9.55 29.89
  Q 9.05 29.95 8.64 30.24
  Q 7.20 31.27 5.87 32.44
  A 0.33 0.33 0.0 0 1 5.33 32.10
  C 6.94 26.09 12.93 22.69 18.68 25.21
  C 22.63 26.94 28.78 37.91 33.18 29.88
  A 0.46 0.46 0.0 0 1 34.02 30.22
  Q 31.82 38.27 24.17 37.95
  Z"
/>
</svg>
