<?xml version="1.0" encoding="UTF-8" standalone="no"?>
<!DOCTYPE svg PUBLIC "-//W3C//DTD SVG 1.1//EN" "http://www.w3.org/Graphics/SVG/1.1/DTD/svg11.dtd">
<svg xmlns="http://www.w3.org/2000/svg" version="1.1" viewBox="0.00 0.00 48.00 48.00">
<g stroke-width="2.00" fill="none" stroke-linecap="butt">
<path stroke="#80bee9" vector-effect="non-scaling-stroke" d="
  M 17.46 20.00
  L 11.68 16.10
  A 1.08 1.06 -36.3 0 0 10.77 15.97
  Q 8.61 16.62 7.70 18.73
  A 0.90 0.90 0.0 0 0 7.91 19.74
  L 12.50 24.04"
/>
<path stroke="#80b3d7" vector-effect="non-scaling-stroke" d="
  M 12.50 24.04
  L 8.06 28.17
  Q 6.89 29.26 8.10 30.30
  L 10.38 32.27
  A 0.62 0.62 0.0 0 0 11.15 32.30
  L 16.54 28.25"
/>
<path stroke="#80bee9" vector-effect="non-scaling-stroke" d="
  M 16.54 28.25
  L 16.89 28.25
  Q 17.25 28.25 17.52 28.48
  L 31.15 40.00"
/>
<path stroke="#80cffb" vector-effect="non-scaling-stroke" d="
  M 31.15 40.00
  L 39.12 36.06
  Q 39.61 35.82 39.62 35.28
  Q 39.95 24.49 39.56 13.68
  C 39.48 11.37 33.63 9.45 31.79 8.75"
/>
<path stroke="#80b3d7" vector-effect="non-scaling-stroke" d="
  M 31.79 8.75
  Q 30.44 8.22 29.00 9.50
  Q 23.16 14.67 17.46 20.00"
/>
<path stroke="#0082d3" vector-effect="non-scaling-stroke" d="
  M 31.79 8.75
  L 31.53 17.33"
/>
<path stroke="#80b3d7" vector-effect="non-scaling-stroke" d="
  M 31.53 17.33
  L 22.50 23.79"
/>
<path stroke="#0071c0" vector-effect="non-scaling-stroke" d="
  M 22.50 23.79
  Q 19.21 22.92 17.46 20.00"
/>
<path stroke="#80bee9" vector-effect="non-scaling-stroke" d="
  M 22.50 23.79
  L 31.50 30.79"
/>
<path stroke="#0071c0" vector-effect="non-scaling-stroke" d="
  M 16.54 28.25
  Q 16.57 28.06 16.75 27.99
  Q 16.98 27.89 16.84 27.70
  Q 15.14 25.31 12.50 24.04"
/>
<path stroke="#008de5" vector-effect="non-scaling-stroke" d="
  M 31.15 40.00
  Q 32.28 34.73 31.50 30.79"
/>
<path stroke="#80cffb" vector-effect="non-scaling-stroke" d="
  M 31.50 30.79
  L 31.53 17.33"
/>
</g>
<path fill="#ffffff" d="
  M 46.76 36.39
  A 10.05 10.05 0.0 0 1 36.71 46.44
  L 11.33 46.44
  A 10.05 10.05 0.0 0 1 1.28 36.39
  L 1.28 11.79
  A 10.05 10.05 0.0 0 1 11.33 1.74
  L 36.71 1.74
  A 10.05 10.05 0.0 0 1 46.76 11.79
  L 46.76 36.39
  Z
  M 17.46 20.00
  L 11.68 16.10
  A 1.08 1.06 -36.3 0 0 10.77 15.97
  Q 8.61 16.62 7.70 18.73
  A 0.90 0.90 0.0 0 0 7.91 19.74
  L 12.50 24.04
  L 8.06 28.17
  Q 6.89 29.26 8.10 30.30
  L 10.38 32.27
  A 0.62 0.62 0.0 0 0 11.15 32.30
  L 16.54 28.25
  L 16.89 28.25
  Q 17.25 28.25 17.52 28.48
  L 31.15 40.00
  L 39.12 36.06
  Q 39.61 35.82 39.62 35.28
  Q 39.95 24.49 39.56 13.68
  C 39.48 11.37 33.63 9.45 31.79 8.75
  Q 30.44 8.22 29.00 9.50
  Q 23.16 14.67 17.46 20.00
  Z"
/>
<path fill="#0066ae" d="
  M 31.79 8.75
  L 31.53 17.33
  L 22.50 23.79
  Q 19.21 22.92 17.46 20.00
  Q 23.16 14.67 29.00 9.50
  Q 30.44 8.22 31.79 8.75
  Z"
/>
<path fill="#009ef7" d="
  M 31.79 8.75
  C 33.63 9.45 39.48 11.37 39.56 13.68
  Q 39.95 24.49 39.62 35.28
  Q 39.61 35.82 39.12 36.06
  L 31.15 40.00
  Q 32.28 34.73 31.50 30.79
  L 31.53 17.33
  L 31.79 8.75
  Z"
/>
<path fill="#007cd2" d="
  M 17.46 20.00
  Q 19.21 22.92 22.50 23.79
  L 31.50 30.79
  Q 32.28 34.73 31.15 40.00
  L 17.52 28.48
  Q 17.25 28.25 16.89 28.25
  L 16.54 28.25
  Q 16.57 28.06 16.75 27.99
  Q 16.98 27.89 16.84 27.70
  Q 15.14 25.31 12.50 24.04
  L 7.91 19.74
  A 0.90 0.90 0.0 0 1 7.70 18.73
  Q 8.61 16.62 10.77 15.97
  A 1.08 1.06 -36.3 0 1 11.68 16.10
  L 17.46 20.00
  Z"
/>
<path fill="#ffffff" d="
  M 31.53 17.33
  L 31.50 30.79
  L 22.50 23.79
  L 31.53 17.33
  Z"
/>
<path fill="#0066ae" d="
  M 12.50 24.04
  Q 15.14 25.31 16.84 27.70
  Q 16.98 27.89 16.75 27.99
  Q 16.57 28.06 16.54 28.25
  L 11.15 32.30
  A 0.62 0.62 0.0 0 1 10.38 32.27
  L 8.10 30.30
  Q 6.89 29.26 8.06 28.17
  L 12.50 24.04
  Z"
/>
</svg>
